<svg width="200" height="200" xmlns="http://www.w3.org/2000/svg">

 <g>
  <title>background</title>
  <rect fill="none" id="canvas_background" height="402" width="582" y="-1" x="-1"/>
 </g>
 <g>
  <title>Layer 1</title>
  <path id="svg_1" d="m140.7,50l-57,0c-3,0 -5.5,2.5 -5.5,5.5s2.5,5.5 5.5,5.5l43.7,0l-35.4,35.3c0,0 0,0 0,0l-35.5,35.5c-2.1,2.1 -2.1,5.6 0,7.8c2.1,2.1 5.6,2.1 7.8,0l35.4,-35.6l4.7,-4.8l30.6,-30.6l0,43.8c0,3 2.5,5.5 5.5,5.5c3,0 5.5,-2.5 5.5,-5.5l0,-57c0,-3 -2.3,-5.4 -5.3,-5.4z"/>
 </g>
</svg>